<?xml version="1.0" ?>
<svg xmlns:rdf="http://www.w3.org/1999/02/22-rdf-syntax-ns#" xmlns="http://www.w3.org/2000/svg" width="150px" height="150px" viewBox="0 0 400 400">
  
  
  <defs id="defs3">
    
    
    <linearGradient id="linearGradient2246">
      
      
      <stop id="stop2247" style="stop-color:#000000" offset="0"/>
      
      
      <stop id="stop2248" style="stop-color:#b3b3b3" offset="1"/>
      
    
    </linearGradient>
    
    
    <linearGradient id="linearGradient2249" y2="403.03" gradientUnits="userSpaceOnUse" x2="326.19" gradientTransform="matrix(.95915 0 0 1.0426 -195.98 -321.6)" y1="491.16" x1="473.12" href="#linearGradient2246"/>
    
    
    <linearGradient id="linearGradient2250" y2="393.93" gradientUnits="userSpaceOnUse" x2="313.5" gradientTransform="matrix(1.0664 0 0 .93772 -195.98 -321.6)" y1="465.82" x1="406.87" href="#linearGradient2246"/>
    
    
    <linearGradient id="linearGradient2251" y2="395.13" gradientUnits="userSpaceOnUse" x2="347.99" gradientTransform="matrix(.77640 0 0 1.288 -195.98 -321.6)" y1="510.12" x1="641.3" href="#linearGradient2246"/>
    
  
  </defs>
  
  
  <path id="path2258" style="stroke:#000000;stroke-width:7.15;stroke-linecap:round;fill:none" d="m227.74 158.48c24.14 8.11 51.34 10.76 71.4 27.91 16.83 11.88 29.77 30.06 50.23 36.16 8.79 3.98 17.51 8.51 24.56 15.21"/>
  
  
  <path id="path2173" style="stroke:#000000;stroke-width:7.1447;stroke-linecap:round;fill:none" d="m223.9 149.77c27.44-20.09 22.77-55.95 28.5-84.92 8.66-22.78 21.09-49.88 43.57-61.28"/>
  
  
  <path id="path2174" style="stroke:#000000;stroke-width:7.15;stroke-linecap:round;fill:none" d="m149.92 143.49c-6.72-27.79-33.36-44.66-42.18-71.48-3.1-6.94-1.87-14.83-4.65-21.73-4.37-10.24-11.02-19.34-17.7-28.14-4.87-4.79-11.34-8.05-14.86-14.11"/>
  
  
  <path id="path2175" style="stroke:#000000;stroke-width:7.15;stroke-linecap:round;fill:none" d="m149.78 156.97c-24.15 8.11-51.35 10.76-71.4 27.92-16.83 11.87-29.78 30.05-50.23 36.15-8.79 3.98-17.52 8.52-24.57 15.21"/>
  
  
  <path id="path2171" style="fill-rule:evenodd;stroke:#000000;stroke-width:1pt;fill:#820000;fill-opacity:.75" d="m309.1 513.82a8.3218 8.9162 0 1 1 -16.644 0 8.3218 8.9162 0 1 1 16.644 0z" transform="matrix(1.7321 0 0 1.7321 -352.18 -815.41)"/>
  
  
  <path id="path2177" style="stroke:#000000;stroke-width:7.15;stroke-linecap:round;fill:none" d="m158.02 174.48c-7.58 12.65-23.98 11.79-36.23 16.52-7.72 2.69-12.91 9.26-19.66 13.56-14.35 11.15-27.47 25.7-31.49 43.91-6.81 17.29-17.4 33.02-29.7 46.84-3.97 3.53-8.65 6.43-11.62 10.95"/>
  
  
  <path id="path920" style="fill-rule:evenodd;stroke:#000000;stroke-width:1.7321pt;fill:url(#linearGradient2251)" d="m236.26 232.13c0 40.92-21 108.11-49.42 108.11-28.41 0-45.3-68.22-45.3-109.14s18.95-49.42 47.36-49.42c28.42 0 47.36 9.53 47.36 50.45z"/>
  
  
  <path id="path2178" style="stroke:#000000;stroke-width:7.15;stroke-linecap:round;fill:none" d="m217.72 178.59c26.16 7.15 45.57 27.27 64.78 45.18 16.22 17.39 20.02 43.07 38.07 59.11 12.04 11.89 26.63 21.74 35.11 36.76"/>
  
  
  <path id="path922" style="fill-rule:evenodd;stroke:#000000;stroke-width:1.7321pt;fill:url(#linearGradient2249)" d="m232.14 154.91c0 15.35-17.77 38.1-42.21 38.1s-46.33-22.75-46.33-38.1c0-15.34 19.76-58.33 44.2-58.33 24.43 0 44.34 42.99 44.34 58.33z"/>
  
  
  <path id="path2172" style="fill-rule:evenodd;stroke:#000000;stroke-width:1pt;fill:#820000;fill-opacity:.75" d="m309.1 513.82a8.3218 8.9162 0 1 1 -16.644 0 8.3218 8.9162 0 1 1 16.644 0z" transform="matrix(1.7321 0 0 1.7321 -310 -814.22)"/>
  
  
  <path id="path1547" style="fill-rule:evenodd;stroke:#000000;stroke-width:1.7321pt;fill:url(#linearGradient2250)" d="m210.74 69.462c8.81 17.57 23.92 35.15 11.95 40.37-17.85 7.79-45.55 6.28-59.31 0.81-26.69-5.46-4.82-22.91 4.11-40.15 8.35-16.1 11.92-29.75 22.09-17.8 10.59-8.82 12.49-0.51 21.16 16.77z"/>
  
  
  <path id="path2231" style="fill-rule:evenodd;stroke:#9f9f9f;stroke-width:1.7321pt;fill:#cecece;fill-opacity:.57527" d="m288 255.81c22.65 44.58 25.42 124.79-1.43 138.43-26.86 13.65-73.22-44.42-95.87-89-11.32-22.3-27.46-53.5-26.08-72.59s20.27-26.08 33.7-32.9c13.42-6.83 18.86-57.49 35.09-47.35 16.23 10.15 43.26 81.11 54.59 103.41z"/>
  
  
  <path id="path2233" style="fill-rule:evenodd;stroke:#9f9f9f;stroke-width:1.7321pt;fill:#cecece;fill-opacity:.57527" d="m84.575 257.87c-22.65 44.58-25.42 124.79 1.43 138.43 26.86 13.65 73.21-44.42 95.87-89 11.32-22.3 27.46-53.5 26.08-72.59s-20.27-26.08-33.7-32.9c-13.42-6.83-18.86-57.5-35.09-47.35s-43.27 81.11-54.59 103.41z"/>
  
  
 
  

</svg>
